<svg xmlns="http://www.w3.org/2000/svg" viewBox="0 0 939 939"><defs><style>.cls-1{fill:#fff;}.cls-2{fill:#f69658;}.cls-3{fill:#666;}</style></defs><g id="Layer_2" data-name="Layer 2"><g id="New_Bulb_and_Layouts" data-name="New Bulb and Layouts"><circle class="cls-1" cx="469.5" cy="469.5" r="442.7574"></circle><path class="cls-2" d="M469.5,27A442.6239,442.6239,0,0,1,641.7327,877.2373,442.6216,442.6216,0,0,1,297.2673,61.7627,439.7039,439.7039,0,0,1,469.5,27m0-27C210.2021,0,0,210.2021,0,469.5S210.2021,939,469.5,939,939,728.7976,939,469.5,728.7976,0,469.5,0Z"></path><path id="Thread_3_-_bkgrnd_inside" data-name="Thread 3 - bkgrnd inside" class="cls-1" d="M553.74,777.5556a8.8306,8.8306,0,0,1,8.8047,8.8047v3.0671a8.8306,8.8306,0,0,1-8.8047,8.8047H385.26a8.8306,8.8306,0,0,1-8.8047-8.8047V786.36a8.8306,8.8306,0,0,1,8.8047-8.8047H553.74"></path><path id="Thread_2_-_bkgrnd_inside" data-name="Thread 2 - bkgrnd inside" class="cls-1" d="M553.74,731.0335a8.8306,8.8306,0,0,1,8.8047,8.8047v3.0671A8.8306,8.8306,0,0,1,553.74,751.71H385.26a8.8306,8.8306,0,0,1-8.8047-8.8047v-3.0671a8.8306,8.8306,0,0,1,8.8047-8.8047H553.74"></path><path id="Thread_1_-_bkgrnd_inside" data-name="Thread 1 - bkgrnd inside" class="cls-1" d="M553.74,684.5113a8.8306,8.8306,0,0,1,8.8047,8.8047v3.0672a8.8305,8.8305,0,0,1-8.8047,8.8046H385.26a8.8306,8.8306,0,0,1-8.8047-8.8046V693.316a8.8306,8.8306,0,0,1,8.8047-8.8047H553.74"></path><path id="Body_-_bkgrnd_Inside" data-name="Body - bkgrnd Inside" class="cls-1" d="M469.5,157.26a219.9347,219.9347,0,0,1,79.2546,14.5267,203.4306,203.4306,0,0,1,64.1852,39.312A180.4864,180.4864,0,0,1,655.6346,268.6a163.8026,163.8026,0,0,1,15.4613,69.58,170.1622,170.1622,0,0,1-12.7419,65.4783,150.7739,150.7739,0,0,1-36.4774,52.9758c-2.3574,2.2005-5.8934,5.3794-9.6371,8.7448-7.6071,6.8389-16.2292,14.59-21.354,19.8459-16.5356,16.9569-29.1762,39.7574-37.5707,67.7681-7.5958,25.345-11.4471,53.9419-11.4471,84.9965v20.6765H397.1322V637.9892c0-31.0546-3.8513-59.6515-11.4471-84.9965-8.3945-28.0108-21.0351-50.8113-37.5707-67.7681-5.1244-5.2552-13.7459-13.0059-21.3524-19.8443-3.7442-3.3661-7.2808-6.5455-9.6385-8.7463a150.7731,150.7731,0,0,1-36.4776-52.9759A170.1622,170.1622,0,0,1,267.904,338.18a163.8026,163.8026,0,0,1,15.4613-69.58A180.4853,180.4853,0,0,1,326.06,211.0991a203.429,203.429,0,0,1,64.1851-39.312A219.9348,219.9348,0,0,1,469.5,157.26"></path><path id="Mouth" class="cls-3" d="M534.2788,476.637a11.0985,11.0985,0,0,0-8.6035-4.06H413.3246a11.0954,11.0954,0,0,0-8.6034,4.06,10.6705,10.6705,0,0,0-2.1533,9.1292c7.2507,31.8,34.7748,54.01,66.934,54.01,32.1611,0,59.6832-22.21,66.93-54.01A10.6674,10.6674,0,0,0,534.2788,476.637Z"></path><path id="Right_Eye" data-name="Right Eye" class="cls-3" d="M572.8825,386.2155V336.6663c0-9.2512,6.2706-17.3855,15.0016-18.8952,11.3574-1.9639,21.1823,7.1409,21.1823,18.6433v50.053c0,11.5024-9.8249,20.6073-21.1823,18.6434C579.1531,403.601,572.8825,395.4667,572.8825,386.2155Z"></path><path id="Left_Eye" data-name="Left Eye" class="cls-3" d="M329.9335,386.2155V336.6663c0-9.2512,6.2707-17.3855,15.0017-18.8952,11.3573-1.9639,21.1822,7.1409,21.1822,18.6433v50.053c0,11.5024-9.8249,20.6073-21.1822,18.6434C336.2042,403.601,329.9335,395.4667,329.9335,386.2155Z"></path><path class="cls-3" d="M469.5,131.4148c-125.6124,0-227.4413,92.5716-227.4413,206.7648,0,52.7178,20.0821,102.4855,57.4285,137.3477,7.2795,6.7947,23.1708,20.6117,30.1234,27.7415,27.9438,28.6558,41.6763,78.82,41.6763,134.72v24.4559a33.95,33.95,0,0,0-19.9875,30.8707v3.0675a33.6388,33.6388,0,0,0,8.08,21.7273,33.6388,33.6388,0,0,0-8.08,21.7273v3.0675a33.6388,33.6388,0,0,0,8.08,21.7273,33.6388,33.6388,0,0,0-8.08,21.7274v3.0674a33.9993,33.9993,0,0,0,33.9613,33.9608h50.2828c5.7457,9.728,18.8984,16.1969,33.9574,16.1969s28.2127-6.4689,33.957-16.1969H553.74a33.9993,33.9993,0,0,0,33.9609-33.9608V786.36a33.6384,33.6384,0,0,0-8.08-21.7274,33.6383,33.6383,0,0,0,8.08-21.7273v-3.0675a33.6383,33.6383,0,0,0-8.08-21.7273,33.6383,33.6383,0,0,0,8.08-21.7273v-3.0675a33.9513,33.9513,0,0,0-19.9871-30.8707V637.9892c0-55.9006,13.732-106.0646,41.6763-134.72,6.9521-7.13,22.8434-20.9468,30.1229-27.7415,37.3464-34.8622,57.429-84.63,57.429-137.3477C696.9416,223.9864,595.1127,131.4148,469.5,131.4148Zm93.0442,561.901v3.0675a8.83,8.83,0,0,1-8.8045,8.8044H385.2606a8.8307,8.8307,0,0,1-8.805-8.8044v-3.0675a8.8308,8.8308,0,0,1,8.805-8.8045H553.74A8.83,8.83,0,0,1,562.5441,693.3158Zm0,49.59A8.83,8.83,0,0,1,553.74,751.71H385.2606a8.8308,8.8308,0,0,1-8.805-8.8045v-3.0675a8.8307,8.8307,0,0,1,8.805-8.8044H553.74a8.83,8.83,0,0,1,8.8045,8.8044Zm0,46.5221a8.83,8.83,0,0,1-8.8045,8.8045H385.2606a8.8308,8.8308,0,0,1-8.805-8.8045V786.36a8.8308,8.8308,0,0,1,8.805-8.8045H553.74a8.83,8.83,0,0,1,8.8045,8.8045Zm59.3325-332.7938c-2.3573,2.2-5.8935,5.3793-9.6372,8.7451-7.6068,6.8387-16.2293,14.59-21.3537,19.8455-16.5358,16.9573-29.1763,39.7573-37.5709,67.7682-7.5957,25.3451-11.4471,53.9421-11.4471,84.9967v20.6764H397.132V637.9892c0-31.0546-3.8509-59.6516-11.4471-84.9967-8.3941-28.0109-21.035-50.8114-37.57-67.7682-5.1244-5.2552-13.7459-13.0059-21.3527-19.8441-3.7438-3.3662-7.28-6.5456-9.6382-8.7465a150.7718,150.7718,0,0,1-36.4779-52.9756A170.1707,170.1707,0,0,1,267.9038,338.18,163.8016,163.8016,0,0,1,283.3655,268.6,180.4846,180.4846,0,0,1,326.06,211.0988a203.4211,203.4211,0,0,1,64.1851-39.3117,223.4629,223.4629,0,0,1,158.5092,0A203.4323,203.4323,0,0,1,612.94,211.0988,180.49,180.49,0,0,1,655.6347,268.6,163.8011,163.8011,0,0,1,671.0959,338.18a170.1614,170.1614,0,0,1-12.7419,65.4785A150.7692,150.7692,0,0,1,621.8766,456.6337Z"></path><g id="Glasses"><path class="cls-2" d="M814.9829,266.5361s-45.2553-14.58-127.3132-14.5908c-112.0522-.015-125.2948,8.4427-166.0159,16.7644-29.4135,6.0108-52.154,4.8785-52.154,4.8785s-22.74,1.1323-52.1539-4.8785C376.6248,260.388,363.3822,251.93,251.33,251.9453c-82.0581.0109-127.3132,14.5908-127.3132,14.5908-6.575,1.258-11.2744,6.4626-11.2744,12.4871v22.1387c0,4.8706,3.2873,9.2175,8.28,11.1435,6.36,2.4532,14.2971,7.053,15.7664,15.0014,2.9,15.696,6.3054,27.327,6.3054,27.327l8.7059,30.7179S162.1642,414.1331,166.77,423.31c22.09,44.0247,50.19,62.7967,116.9956,62.8378,71.39.0434,88.8009-16.2348,109.6056-33.5739,8.7475-7.292,22.255-27.7685,35.2377-53.3166,4.3865-8.6293,19.4693-56.3591,22.29-60.5975,4.4112-6.625,18.6011-6.5206,18.6011-6.5206s14.19-.1044,18.6014,6.5206c2.8207,4.2384,17.9037,51.9682,22.29,60.5975,12.9827,25.5481,26.49,46.0246,35.2375,53.3166,20.8047,17.3391,38.2157,33.6173,109.6058,33.5739,66.8058-.0411,94.9049-18.8131,116.9956-62.8378,4.6054-9.1771,14.9689-37.9585,14.9689-37.9585l8.7059-30.7179s3.4053-11.631,6.3056-27.327c1.4691-7.9484,9.4068-12.5482,15.7665-15.0014,4.9926-1.926,8.28-6.2729,8.28-11.1435V279.0232C826.2573,272.9987,821.5579,267.7941,814.9829,266.5361ZM420.7255,356.6086c-24.21,71.1663-46.0891,82.367-56.4718,89.8332-14.8168,10.6546-33.9219,17.214-83.64,17.8482-35.6951.4551-57.3248-4.5848-77.8049-26.5734-15.4149-16.5469-26.1744-52.9933-30.5259-71.8155-4.4666-19.3224-11.768-62.0658,7.6346-78.6508,20.6337-17.638,80.1814-17.1925,107.4315-16.7272,31.6043.54,104.2871,2.4653,123.55,24.2283S422.5856,351.1415,420.7255,356.6086Zm346.4771,9.2925c-4.3517,18.8222-15.111,55.2686-30.5259,71.8155-20.48,21.9886-42.11,27.0285-77.8051,26.5734-49.7184-.6342-68.8234-7.1936-83.64-17.8482-10.3827-7.4662-32.2613-18.6669-56.4718-89.8332-1.86-5.4671-9.4364-40.094,9.8268-61.8572s91.946-23.6887,123.55-24.2283c27.25-.4653,86.7975-.9108,107.4315,16.7272C778.9706,303.8353,771.669,346.5787,767.2026,365.9011Z"></path></g></g></g></svg>